<svg xmlns="http://www.w3.org/2000/svg" width="1024" height="1024">
  <path d="M756.568 533.576v-59.504h148.76v59.504zm49.587 287.6-120-89.255 35.703-47.603 119.999 89.256zm-81.322-498.838-35.702-47.603 117.024-88.264 35.702 47.603zM240.87 781.508V622.83h-69.42q-24.794 0-42.149-17.355t-17.355-42.148V444.32q0-24.793 17.355-42.148 17.355-17.355 42.149-17.355h178.51l198.346-119.008v476.03L349.96 622.83h-49.586v158.676Zm89.256-277.684Zm257.849 132.891V370.932q26.776 23.802 43.14 58.017 16.363 34.214 16.363 74.875 0 40.66-16.363 74.875-16.364 34.215-43.14 58.016zM171.45 444.32v119.008h194.378l122.974 73.387V370.932L365.828 444.32z" style="stroke-width:19.8345;fill:#f3c109;fill-opacity:1"/>
</svg>
